<?xml version="1.0" encoding="UTF-8"?><svg id="Layer_1" xmlns="http://www.w3.org/2000/svg" viewBox="0 0 1024 1024"><defs><style>.cls-1{stroke-width:0px;}</style></defs><path class="cls-1" d="M959.83,472.43c-39.71,0-57.28-18.71-52.71-56.13l13.69-107.47c2.74-24.18-.8-45.18-10.61-62.98-9.82-17.8-24.64-31.59-44.5-41.41-19.85-9.81-42.77-14.3-69.23-14.3h-210.04l26.68,78.31h170.8c16.88,0,30.12,4.22,39.7,12.67,9.58,8.45,13.45,20.43,11.64,35.94l-13.69,106.79c-2.74,23.27,2.74,42.44,16.43,57.5,13.69,15.06,32.86,24.64,57.5,28.75-24.64,4.11-43.81,14.27-57.5,30.46-13.69,16.21-19.17,35.94-16.43,59.22l13.69,106.79c1.82,15.06-2.05,26.81-11.64,35.25-9.58,8.45-22.82,12.66-39.7,12.66h-71.1c-26.99,0-44.6-16.05-52.81-41.29l-146.1-431.26c-22.31-63.95-63.67-91.78-128.8-91.78h-145.28c-40.16,0-71.88,10.84-95.15,32.52-23.27,21.68-33.09,50.55-29.44,86.6l10.27,107.47c1.82,18.26-1.37,32.17-9.58,41.76-8.22,9.58-22.37,14.38-42.44,14.38l-23.21-.06v78.72l23.21.06c20.07,0,34.23,4.79,42.44,14.38,8.21,9.58,11.4,23.73,9.58,42.44l-10.27,104.05c-3.66,36.97,6.16,66.51,29.44,88.65,13.14,12.5,25.72,19.36,31.33,21.98,1.21.57,2.37,1.35,7.51,3.17l34.55-79.07c-2.05-1.46-3.52-2.75-5.27-4.94-7.84-9.87-13.35-20.2-11.98-35.25l10.27-106.79c2.28-23.73-3.77-43.58-18.14-59.56-14.38-15.97-35.71-26.01-64-30.12,28.29-3.65,49.63-13.11,64-28.41,14.38-15.28,20.42-34.57,18.14-57.84l-10.27-106.79c-.92-15.51,3.19-27.49,12.32-35.94,9.12-8.44,22.13-12.67,39.02-12.67h120.15c25.22,0,42.44,15.7,51.83,40.34l42,118.5-178.54,406.17h101.21l99.33-223.11c4.69-12.9,9.24-26.98,13.64-42.24,4.4-15.25,7.77-28.74,10.12-40.49,1.76,11.74,4.54,25.08,8.36,40.05,3.81,14.96,8.06,30.08,12.76,45.33l38.97,130.58c9.38,30.52,26.1,53.69,50.17,69.53,24.05,15.84,53.41,20.36,88.61,20.36h85.46c26.92,0,50.2-5.03,69.82-15.06,19.62-10.04,34.34-24.19,44.15-42.44,9.81-18.26,13.35-39.7,10.61-64.35l-13.69-104.05c-4.57-37.87,13-56.82,52.71-56.82h13.91v-78.72h-13.91Z"/></svg>